<?xml version="1.0" encoding="utf-8"?>
<!-- Generator: Adobe Illustrator 19.2.1, SVG Export Plug-In . SVG Version: 6.00 Build 0)  -->
<svg version="1.1" id="Layer_1" xmlns="http://www.w3.org/2000/svg" xmlns:xlink="http://www.w3.org/1999/xlink" x="0px" y="0px"
	 viewBox="0 0 28.1 36" style="enable-background:new 0 0 28.1 36;" xml:space="preserve">
<g>
	<path d="M5.7,18.3c-4.6-4.6-4.6-12.1,0-16.7L4.1,0c-5.5,5.5-5.5,14.4,0,19.9L5.7,18.3z"/>
	<path d="M22.4,18.3l1.6,1.6c5.5-5.5,5.5-14.4,0-19.9l-1.6,1.6C27,6.2,27,13.7,22.4,18.3z"/>
	<path d="M7.8,16.2l1.6-1.6c-1.3-1.3-1.9-2.9-1.9-4.7s0.7-3.5,1.9-4.7L7.8,3.7C6.1,5.3,5.2,7.6,5.2,9.9S6.1,14.5,7.8,16.2z"/>
	<path d="M20.3,16.2c1.7-1.7,2.6-3.9,2.6-6.3S22,5.3,20.3,3.7l-1.6,1.6c1.3,1.3,1.9,2.9,1.9,4.7s-0.7,3.5-1.9,4.7L20.3,16.2z"/>
	<path d="M15.4,13.4c1.3-0.6,2.3-1.9,2.3-3.4c0-2-1.7-3.7-3.7-3.7s-3.7,1.7-3.7,3.7c0,1.5,1,2.9,2.3,3.4L6.7,33.8H2.4V36h23.4v-2.2
		h-4.3L15.4,13.4z M16.9,26.3l-5.7,0l2.9-9.8L16.9,26.3z M14.1,8.5c0.8,0,1.5,0.7,1.5,1.5c0,0.8-0.7,1.5-1.5,1.5
		c-0.8,0-1.5-0.7-1.5-1.5S13.2,8.5,14.1,8.5z M10.5,28.5l7,0l1.5,5.2H9L10.5,28.5z"/>
</g>
</svg>
