<?xml version="1.0" encoding="utf-8"?>
<!-- Generator: Adobe Illustrator 19.2.1, SVG Export Plug-In . SVG Version: 6.00 Build 0)  -->
<svg version="1.1" id="Layer_1" xmlns="http://www.w3.org/2000/svg" xmlns:xlink="http://www.w3.org/1999/xlink" x="0px" y="0px"
	 viewBox="0 0 36 36" style="enable-background:new 0 0 36 36;" xml:space="preserve">
<style type="text/css">
	.st0{fill:#1C2E36;}
	.st1{fill:none;}
</style>
<path class="st0" d="M0.4,35.3c0.2,0.2,0.6,0.4,0.9,0.4s0.6-0.1,0.9-0.4l15.7-15.7l15.7,15.7c0.2,0.2,0.6,0.4,0.9,0.4
	c0.3,0,0.6-0.1,0.9-0.4c0.5-0.5,0.5-1.3,0-1.8L19.6,17.8L35.3,2.1c0.5-0.5,0.5-1.3,0-1.8s-1.3-0.5-1.8,0L17.8,16L2.1,0.3
	c-0.5-0.5-1.3-0.5-1.8,0s-0.5,1.3,0,1.8L16,17.8L0.4,33.5C-0.1,34-0.1,34.8,0.4,35.3L0.4,35.3z"/>
<rect class="st1" width="35.6" height="36"/>
</svg>
