<?xml version="1.0" encoding="utf-8"?>
<!-- Generator: Adobe Illustrator 19.2.1, SVG Export Plug-In . SVG Version: 6.00 Build 0)  -->
<svg version="1.1" id="Layer_1" xmlns="http://www.w3.org/2000/svg" xmlns:xlink="http://www.w3.org/1999/xlink" x="0px" y="0px"
	 viewBox="0 0 36 17.7" style="enable-background:new 0 0 36 17.7;" xml:space="preserve">
<path d="M35.3,0.3c-0.4-0.2-0.9,0-1.2,0.4L29,7.1C26.9,5,21.5,0,15.1,0C6.9,0,0.5,7.8,0.2,8.2c-0.3,0.4-0.3,1,0,1.4
	c0.3,0.3,6.7,8.2,14.8,8.2h0c6.4,0,11.8-4.9,13.9-7.1l5.1,6.5c0.2,0.3,0.5,0.4,0.9,0.4c0.1,0,0.2,0,0.4-0.1c0.4-0.2,0.7-0.6,0.7-1
	V1.3C36,0.8,35.7,0.4,35.3,0.3L35.3,0.3z M15.1,15.5L15.1,15.5C15.1,15.5,15.1,15.5,15.1,15.5c-5.8,0-10.8-4.8-12.5-6.7
	C4.3,7,9.3,2.2,15.1,2.2c5.8,0,10.8,4.8,12.5,6.7C25.9,10.7,20.8,15.5,15.1,15.5z M33.8,13.3l-3.4-4.4l3.4-4.4V13.3z M21.3,7.9
	l-5-2.6C15.7,5,15,5.3,14.7,5.8c-0.3,0.5-0.1,1.2,0.5,1.5l3.1,1.6l-3.1,1.6c-0.5,0.3-0.8,0.9-0.5,1.5c0.2,0.4,0.6,0.6,1,0.6
	c0.2,0,0.3,0,0.5-0.1l5-2.6c0.4-0.2,0.6-0.6,0.6-1C21.9,8.4,21.6,8.1,21.3,7.9L21.3,7.9z"/>
</svg>
