<?xml version="1.0" encoding="utf-8"?>
<!-- Generator: Adobe Illustrator 19.2.1, SVG Export Plug-In . SVG Version: 6.00 Build 0)  -->
<svg version="1.1" id="Layer_1" xmlns="http://www.w3.org/2000/svg" xmlns:xlink="http://www.w3.org/1999/xlink" x="0px" y="0px"
	 viewBox="0 0 36 45.7" style="enable-background:new 0 0 36 45.7;" xml:space="preserve">
<style type="text/css">
	.st0{fill:none;}
	.st1{fill:#FFFFFF;}
</style>
<rect class="st0" width="36" height="45.7"/>
<path class="st1" d="M18,0C8.1,0,0,8.1,0,18.1c0,1.2,0.1,2.4,0.4,3.6c0,0.1,0,0.2,0,0.3c2,8.9,16,22.3,16.6,22.9
	c0.3,0.3,0.7,0.4,1.1,0.4c0.4,0,0.8-0.2,1.1-0.4c0.6-0.6,14.5-13.9,16.5-22.7c0-0.1,0-0.2,0-0.2c0.3-1.2,0.4-2.5,0.4-3.8
	C36.1,8.1,28,0,18,0L18,0z M32.5,21.3v0.1c-1.5,6.5-11.2,16.7-14.5,20C14.7,38.1,5,27.9,3.5,21.3c0-0.1,0-0.1,0-0.2
	c-0.2-1-0.3-2-0.3-3C3.2,9.9,9.8,3.2,18,3.2S32.9,9.8,32.9,18C32.9,19.2,32.8,20.3,32.5,21.3L32.5,21.3z M32.5,21.3 M18,10.2
	c-3.4,0-6,2.7-6,6c0,3.3,2.7,6,6,6c3.3,0,6-2.7,6-6C24.1,12.9,21.4,10.2,18,10.2L18,10.2z M18,19.1c-1.6,0-2.9-1.3-2.9-2.9
	c0-1.6,1.3-2.9,2.9-2.9c1.6,0,2.9,1.3,2.9,2.9C20.9,17.8,19.6,19.1,18,19.1L18,19.1z M18,19.1"/>
</svg>
