<?xml version="1.0" encoding="utf-8"?>
<!-- Generator: Adobe Illustrator 19.2.1, SVG Export Plug-In . SVG Version: 6.00 Build 0)  -->
<svg version="1.1" id="Layer_1" xmlns="http://www.w3.org/2000/svg" xmlns:xlink="http://www.w3.org/1999/xlink" x="0px" y="0px"
	 viewBox="0 0 36 36" style="enable-background:new 0 0 36 36;" xml:space="preserve">
<style type="text/css">
	.st0{fill:#1C2E36;}
</style>
<path class="st0" d="M1.4,35.9h12.3c0.1,0,0.2,0,0.2,0h8.4c0.1,0,0.2,0,0.2,0h12.2c0.7,0,1.3-0.6,1.3-1.3V17.9c0-0.1,0-0.2,0-0.2
	c0-0.1,0-0.1-0.1-0.2v-0.1c0-0.1-0.1-0.1-0.1-0.2c0,0,0,0,0-0.1s-0.1-0.1-0.2-0.2L18.9,0.4c-0.5-0.5-1.3-0.5-1.8,0L0.4,17.1
	c-0.1,0.1-0.1,0.1-0.2,0.2c0,0,0,0,0,0.1s-0.1,0.1-0.1,0.2v0.1c0,0.1,0,0.1-0.1,0.2c0,0.1,0,0.2,0,0.2v16.7
	C0.1,35.4,0.7,35.9,1.4,35.9L1.4,35.9z M21,33.4h-5.8v-5.8H21V33.4z M18.1,3.1l13.6,13.6H4.4L18.1,3.1z M2.6,19.2h30.8v14.2h-9.9
	v-7.1c0-0.7-0.6-1.3-1.3-1.3h-8.4c-0.7,0-1.3,0.6-1.3,1.3v7.1h-10V19.2H2.6z"/>
</svg>
