<?xml version="1.0" encoding="utf-8"?>
<!-- Generator: Adobe Illustrator 19.2.1, SVG Export Plug-In . SVG Version: 6.00 Build 0)  -->
<svg version="1.1" id="Layer_1" xmlns="http://www.w3.org/2000/svg" xmlns:xlink="http://www.w3.org/1999/xlink" x="0px" y="0px"
	 viewBox="0 0 19.8 30" style="enable-background:new 0 0 19.8 30;" xml:space="preserve">
<path d="M19.7,12.7c-0.2-0.4-0.5-0.6-1-0.6h-4.5L18,1.4c0.2-0.5,0-1-0.4-1.2c-0.4-0.3-0.9-0.2-1.3,0.1l-16,15.9
	c-0.3,0.3-0.4,0.7-0.2,1.1C0.2,17.7,0.6,18,1,18h4.4l-4,10.6c-0.2,0.5,0,1,0.4,1.2C2,29.9,2.2,30,2.4,30c0.3,0,0.5-0.1,0.7-0.3
	l16.4-15.9C19.8,13.5,19.9,13.1,19.7,12.7z M5,25l2.9-7.7c0.1-0.3,0.1-0.7-0.1-1C7.6,16,7.3,15.9,7,15.9H3.6l11-10.9l-2.7,7.8
	c-0.1,0.3-0.1,0.7,0.1,0.9c0.2,0.3,0.5,0.4,0.8,0.4h3.4L5,25z"/>
</svg>
