<?xml version="1.0" encoding="utf-8"?>
<!-- Generator: Adobe Illustrator 19.2.1, SVG Export Plug-In . SVG Version: 6.00 Build 0)  -->
<svg version="1.1" id="Layer_1" xmlns="http://www.w3.org/2000/svg" xmlns:xlink="http://www.w3.org/1999/xlink" x="0px" y="0px"
	 viewBox="0 0 36 34.3" style="enable-background:new 0 0 36 34.3;" xml:space="preserve">
<path d="M17.9,19.2c5.3,0,9.6-4.3,9.6-9.6c0-5.3-4.3-9.6-9.6-9.6c-5.3,0-9.6,4.3-9.6,9.6S12.6,19.2,17.9,19.2L17.9,19.2z M17.9,2.5
	c3.9,0,7.1,3.2,7.1,7.1s-3.2,7.1-7.1,7.1c-3.9,0-7.1-3.2-7.1-7.1S14,2.5,17.9,2.5L17.9,2.5z M17.9,2.5 M1.3,34.3h33.5
	c0.7,0,1.3-0.6,1.3-1.3c0-6.7-5.4-12.1-12.1-12.1H12.1C5.4,20.9,0,26.3,0,33C0,33.7,0.6,34.3,1.3,34.3L1.3,34.3z M12.1,23.5h11.8
	c4.8,0,8.8,3.6,9.5,8.3H2.6C3.3,27.1,7.2,23.5,12.1,23.5L12.1,23.5z M12.1,23.5"/>
</svg>
