<?xml version="1.0" encoding="utf-8"?>
<!-- Generator: Adobe Illustrator 19.2.1, SVG Export Plug-In . SVG Version: 6.00 Build 0)  -->
<svg version="1.1" id="Layer_1" xmlns="http://www.w3.org/2000/svg" xmlns:xlink="http://www.w3.org/1999/xlink" x="0px" y="0px"
	 viewBox="0 0 35.6 36" style="enable-background:new 0 0 35.6 36;" xml:space="preserve">
<style type="text/css">
	.st0{fill:none;}
</style>
<rect class="st0" width="35.6" height="36"/>
<path d="M35.2,18.4l-18-18c-0.3-0.3-0.7-0.4-1-0.4L2.7,1.6C2.1,1.6,1.6,2.1,1.5,2.7L0,16.2c0,0.4,0.1,0.8,0.4,1l18,18
	c0.2,0.2,0.6,0.4,0.9,0.4c0.3,0,0.6-0.1,0.9-0.4l15-15c0.2-0.2,0.4-0.6,0.4-0.9C35.6,19,35.5,18.7,35.2,18.4L35.2,18.4z M2.6,15.9
	L4,4l11.8-1.4l12.2,12.2L14.9,28.1L2.6,15.9z M19.3,32.5L16.7,30l13.2-13.2l2.6,2.6L19.3,32.5z M19.3,32.5 M14.8,7.9
	c-0.9-0.9-2.1-1.4-3.5-1.4C10,6.5,8.8,7,7.9,7.9c-1.9,1.9-1.9,5,0,6.9c0.9,0.9,2.1,1.4,3.5,1.4c1.3,0,2.5-0.5,3.5-1.4
	c0.9-0.9,1.4-2.1,1.4-3.5C16.2,10.1,15.7,8.8,14.8,7.9L14.8,7.9z M13,13c-0.9,0.9-2.4,0.9-3.3,0c-0.9-0.9-0.9-2.4,0-3.3
	c0.4-0.4,1-0.7,1.6-0.7c0.6,0,1.2,0.2,1.6,0.7c0.4,0.4,0.7,1,0.7,1.6C13.7,12,13.4,12.6,13,13L13,13z M13,13"/>
</svg>
