<?xml version="1.0" encoding="utf-8"?>
<!-- Generator: Adobe Illustrator 19.2.1, SVG Export Plug-In . SVG Version: 6.00 Build 0)  -->
<svg version="1.1" id="Layer_1" xmlns="http://www.w3.org/2000/svg" xmlns:xlink="http://www.w3.org/1999/xlink" x="0px" y="0px"
	 viewBox="0 0 36 36" style="enable-background:new 0 0 36 36;" xml:space="preserve">
<style type="text/css">
	.st0{fill:#FFFFFF;}
</style>
<path class="st0" d="M13.8,27.7c3.4,0,6.4-1.2,8.8-3.2l10.7,10.7c0.2,0.2,0.6,0.4,0.9,0.4c0.3,0,0.6-0.1,0.9-0.4
	c0.5-0.5,0.5-1.3,0-1.8L24.5,22.7c2-2.4,3.2-5.5,3.2-8.8c0-7.6-6.2-13.8-13.8-13.8C6.2,0.1,0,6.3,0,13.9S6.2,27.7,13.8,27.7z
	 M13.8,2.6c6.3,0,11.3,5.1,11.3,11.3c0,6.3-5.1,11.3-11.3,11.3c-6.3,0-11.3-5.1-11.3-11.3S7.6,2.6,13.8,2.6z"/>
</svg>
